# xmcd
#
# Track frame offsets: 
#        150
#        18897
#        45508
#        67895
#
# Disc length: 1122 seconds
#
# Revision: 4
# Processed by: cddbd v1.5.2PL0 Copyright (c) Steve Scherf et al.
# Submitted via: ExactAudioCopy v1.0b3
#
DISCID=24046004
DTITLE=Basis - Ich Lieb Dich Immer Noch
DYEAR=1999
DGENRE=Rap
TTITLE0=Ich Lieb Dich Immer Noch (Radio Version)
TTITLE1=Ich Lieb Dich Immer Noch (Extralang Version)
TTITLE2=Ich Lieb Dich Immer Noch (Step Hop)
TTITLE3=Man Trifft Sich Immer Zweimal (Album Version)
EXTD=
EXTT0=
EXTT1=
EXTT2=
EXTT3=
PLAYORDER=
